<svg width="235" height="124" viewBox="0 0 235 124" fill="none" xmlns="http://www.w3.org/2000/svg">
<path d="M13.268 40.1841V52.6001C12.1586 52.9414 10.5586 53.2401 8.46797 53.4961C6.3773 53.7521 4.47863 53.8801 2.77197 53.8801C1.9613 44.5788 1.34263 36.1308 0.915966 28.5361C0.531966 20.8987 0.339966 14.4347 0.339966 9.14408C0.638632 8.93075 0.873299 8.78142 1.04397 8.69608C1.21463 8.61075 1.3853 8.52541 1.55597 8.44008C3.21997 7.58675 5.13997 6.90408 7.31597 6.39208C9.49197 5.83742 11.7533 5.51742 14.1 5.43208C16.66 9.14408 18.9 12.7921 20.82 16.3761C22.7826 19.9174 24.596 23.7147 26.26 27.7681C26.26 22.6481 26.1533 18.1041 25.94 14.1361C25.7266 10.1254 25.428 6.86142 25.044 4.34408C27.2626 3.66141 29.46 3.14941 31.636 2.80808C33.812 2.42408 35.9666 2.23208 38.1 2.23208C38.228 4.66408 38.3133 7.01075 38.356 9.27208C38.3986 11.5334 38.42 13.7307 38.42 15.8641C38.42 21.1121 38.292 26.6161 38.036 32.3761C37.8226 38.0934 37.524 43.5974 37.14 48.8881C34.4946 49.3148 32.2973 49.6348 30.548 49.8481C28.8413 50.0188 27.1773 50.1467 25.556 50.2321C22.8253 43.6187 20.564 38.5201 18.772 34.9361C17.0226 31.3094 15.2093 28.0027 13.332 25.0161C13.2893 26.7654 13.268 28.7067 13.268 30.8401C13.268 32.9307 13.268 36.0454 13.268 40.1841Z" fill="#FFD600"/>
<path d="M76.1775 5.43208C77.1161 9.86942 77.7561 13.5387 78.0975 16.4401C78.4815 19.3414 78.6735 22.0721 78.6735 24.6321C78.6735 34.9574 77.0308 42.7867 73.7455 48.1201C70.5028 53.4534 65.6815 56.1201 59.2815 56.1201C54.3321 56.1201 50.5775 54.2214 48.0175 50.4241C45.4575 46.6268 44.1775 41.1654 44.1775 34.0401C44.1775 29.6454 44.5615 25.1014 45.3295 20.4081C46.0975 15.7148 46.8868 12.6427 47.6975 11.1921C48.5081 10.9787 49.4895 10.8081 50.6415 10.6801C51.8361 10.5094 52.9881 10.4241 54.0975 10.4241C55.4201 10.4241 56.5508 10.5094 57.4895 10.6801C58.4708 10.8507 59.2175 11.0854 59.7295 11.3841C59.1321 14.8401 58.6841 18.2961 58.3855 21.7521C58.0868 25.1654 57.9375 28.4081 57.9375 31.4801C57.9375 36.6001 58.2148 40.6108 58.7695 43.5121C59.3668 46.3708 60.1988 47.8001 61.2655 47.8001C62.5881 47.8001 63.5908 46.1574 64.2735 42.8721C64.9561 39.5441 65.2975 34.7867 65.2975 28.6001C65.2975 25.5281 65.0841 22.2641 64.6575 18.8081C64.2308 15.3521 63.5695 11.7041 62.6735 7.86408C64.3375 7.13875 66.4708 6.56275 69.0735 6.13608C71.6761 5.66675 74.0441 5.43208 76.1775 5.43208Z" fill="#FFD600"/>
<path d="M105.537 48.1841C103.66 48.6534 101.804 48.9948 99.9695 49.2081C98.1775 49.4214 96.1508 49.5281 93.8895 49.5281C93.8895 43.5548 93.7188 37.1121 93.3775 30.2001C93.0361 23.2454 92.5668 17.2507 91.9695 12.2161C91.4148 12.2587 90.3481 12.3654 88.7695 12.5361C87.1908 12.6641 85.0788 12.8561 82.4335 13.1121C81.8788 11.6187 81.4521 10.0827 81.1535 8.50408C80.8548 6.92542 80.7055 5.38941 80.7055 3.89608C86.5508 2.57342 92.1188 1.63475 97.4095 1.08008C102.743 0.482749 108.759 0.184082 115.457 0.184082C115.671 0.909416 115.82 1.74142 115.905 2.68008C116.033 3.57608 116.097 4.57875 116.097 5.68808C116.097 6.45608 116.033 7.28808 115.905 8.18408C115.82 9.08008 115.649 10.0614 115.393 11.1281C113.772 11.1281 112.193 11.1494 110.657 11.1921C109.121 11.1921 107.607 11.2347 106.113 11.3201C106.284 13.9654 106.412 16.7174 106.497 19.5761C106.583 22.4347 106.625 25.3787 106.625 28.4081C106.625 31.2241 106.54 34.2747 106.369 37.5601C106.199 40.8027 105.921 44.3441 105.537 48.1841Z" fill="#FFD600"/>
<path d="M134.947 55.1601C133.027 55.6294 131.15 55.9707 129.315 56.1841C127.48 56.3974 125.411 56.5041 123.107 56.5041C123.107 48.6961 122.744 39.7361 122.019 29.6241C121.336 19.4694 120.462 11.3414 119.395 5.24008C121.87 5.11208 124.344 4.92008 126.819 4.66408C129.294 4.40808 131.96 4.08808 134.819 3.70408C136.782 3.44808 139.512 3.06408 143.011 2.55208C146.51 2.04008 148.92 1.67741 150.243 1.46408C150.456 2.18941 150.606 3.02142 150.691 3.96008C150.819 4.85608 150.883 5.85875 150.883 6.96808C150.883 7.73608 150.819 8.56808 150.691 9.46408C150.606 10.3601 150.435 11.3414 150.179 12.4081C146.424 12.7921 143.31 13.1121 140.835 13.3681C138.36 13.6241 136.547 13.7947 135.395 13.8801C135.48 15.6721 135.544 17.4854 135.587 19.3201C135.672 21.1121 135.715 22.9041 135.715 24.6961C137.55 24.2694 139.342 23.9707 141.091 23.8001C142.883 23.5868 144.675 23.4801 146.467 23.4801C146.851 24.8881 147.107 26.3814 147.235 27.9601C147.406 29.4961 147.491 31.4374 147.491 33.7841C145.187 33.7841 143.075 33.8267 141.155 33.9121C139.278 33.9974 137.486 34.1468 135.779 34.3601C135.694 38.3281 135.587 42.0614 135.459 45.5601C135.331 49.0161 135.16 52.2161 134.947 55.1601Z" fill="#FFD600"/>
<path d="M188.368 51.6401C187.131 52.0241 183.163 52.4721 176.464 52.9841C169.808 53.4961 164.24 53.7521 159.76 53.7521C158.694 46.9681 157.712 39.0534 156.816 30.0081C155.963 20.9627 155.494 13.4321 155.408 7.41608C161.979 6.17875 167.675 5.30408 172.496 4.79208C177.36 4.23742 182.118 3.96008 186.768 3.96008C186.768 5.53875 186.662 7.22408 186.448 9.01608C186.278 10.7654 185.979 12.6001 185.552 14.5201C183.163 14.5201 180.688 14.5627 178.128 14.6481C175.568 14.7334 172.902 14.8614 170.128 15.0321C170.043 15.9707 169.979 17.0587 169.936 18.2961C169.894 19.4907 169.851 21.3041 169.808 23.7361C171.984 23.0961 174.16 22.6267 176.336 22.3281C178.512 22.0294 180.731 21.8801 182.992 21.8801C183.334 23.3734 183.59 24.9094 183.76 26.4881C183.931 28.0667 184.016 29.9227 184.016 32.0561C181.584 32.0561 179.174 32.1414 176.784 32.3121C174.395 32.4401 172.07 32.6321 169.808 32.8881C169.851 34.8081 169.915 36.6854 170 38.5201C170.086 40.3548 170.214 42.1041 170.384 43.7681C171.622 43.7681 174.224 43.5334 178.192 43.0641C182.16 42.5521 185.147 42.1041 187.152 41.7201C187.494 42.6161 187.771 44.0881 187.984 46.1361C188.24 48.1414 188.368 49.9761 188.368 51.6401Z" fill="#FFD600"/>
<path d="M220.663 29.1121C221.645 30.4774 222.37 31.9281 222.839 33.4641C223.309 34.9574 223.543 36.5788 223.543 38.3281C223.543 42.7228 221.965 46.3707 218.807 49.2721C215.65 52.1308 211.767 53.5601 207.159 53.5601C202.082 53.5601 197.837 52.0028 194.423 48.8881C191.053 45.7308 189.367 41.9974 189.367 37.6881C190.733 37.0054 192.375 36.4294 194.295 35.9601C196.258 35.4481 197.879 35.1921 199.159 35.1921C199.159 38.4348 199.757 41.0587 200.951 43.0641C202.189 45.0267 203.853 46.0081 205.943 46.0081C207.437 46.0081 208.589 45.6028 209.399 44.7921C210.21 43.9388 210.615 42.7867 210.615 41.3361C210.615 40.0987 210.189 38.9041 209.335 37.7521C208.525 36.5574 206.69 34.8721 203.831 32.6961C201.698 31.0748 200.119 29.7734 199.095 28.7921C198.071 27.8108 197.197 26.8507 196.471 25.9121C195.447 24.4614 194.679 22.9681 194.167 21.4321C193.655 19.8534 193.399 18.1681 193.399 16.3761C193.399 12.1094 194.914 8.63208 197.943 5.94408C201.015 3.25608 205.026 1.91208 209.975 1.91208C214.37 1.91208 217.89 2.97875 220.535 5.11208C223.223 7.20275 224.994 10.3174 225.847 14.4561C224.61 15.2667 223.202 15.9067 221.623 16.3761C220.045 16.8027 217.975 17.1014 215.415 17.2721C215.031 14.6267 214.391 12.7281 213.495 11.5761C212.599 10.4241 211.362 9.84808 209.783 9.84808C208.802 9.84808 208.013 10.1681 207.415 10.8081C206.861 11.4054 206.583 12.2161 206.583 13.2401C206.583 14.6481 207.01 15.9921 207.863 17.2721C208.717 18.5521 210.594 20.2801 213.495 22.4561C215.629 24.0347 217.186 25.2934 218.167 26.2321C219.149 27.1707 219.981 28.1308 220.663 29.1121Z" fill="#FFD600"/>
<path d="M88.8362 72.5601C89.1775 79.5574 89.4549 87.7494 89.6682 97.1361C89.9242 106.523 90.0522 114.757 90.0522 121.84C87.7055 121.84 85.2736 121.733 82.7562 121.52C80.2389 121.307 78.4255 121.029 77.3162 120.688C77.3162 117.915 77.2949 114.672 77.2522 110.96C77.2095 107.248 77.1669 103.493 77.1242 99.6961C75.0335 99.7387 73.0709 99.8241 71.2362 99.9521C69.4016 100.037 67.6735 100.187 66.0522 100.4C66.0095 102.533 65.9669 104.795 65.9242 107.184C65.9242 109.531 65.9242 112.624 65.9242 116.464C64.8149 116.805 63.1082 117.104 60.8042 117.36C58.5429 117.616 56.4949 117.744 54.6602 117.744C53.7642 106.864 53.1242 98.0961 52.7402 91.4401C52.3989 84.7841 52.2282 79.1308 52.2282 74.4801C53.2522 73.7974 54.5322 73.2641 56.0682 72.8801C57.6042 72.4961 59.1829 72.3041 60.8042 72.3041C61.9989 72.3041 63.0869 72.3681 64.0682 72.4961C65.0495 72.6241 66.0309 72.8161 67.0122 73.0721C66.8415 74.9921 66.6922 77.4667 66.5642 80.4961C66.4362 83.5254 66.3296 86.9174 66.2442 90.6721C68.1216 90.3734 69.9349 90.1387 71.6842 89.9681C73.4336 89.7547 75.1829 89.6268 76.9322 89.5841C76.8469 85.8721 76.7189 82.4374 76.5482 79.2801C76.3776 76.0801 76.2069 73.4134 76.0362 71.2801C77.0602 71.0241 77.9989 70.8321 78.8522 70.7041C79.7482 70.5761 80.6656 70.5121 81.6042 70.5121C82.9696 70.5121 84.2922 70.7041 85.5722 71.0881C86.8522 71.4294 87.9402 71.9201 88.8362 72.5601Z" fill="#FFD600"/>
<path d="M127.334 72.4321C128.272 76.8694 128.912 80.5387 129.254 83.4401C129.638 86.3414 129.83 89.0721 129.83 91.6321C129.83 101.957 128.187 109.787 124.902 115.12C121.659 120.453 116.838 123.12 110.438 123.12C105.488 123.12 101.734 121.221 99.1737 117.424C96.6137 113.627 95.3337 108.165 95.3337 101.04C95.3337 96.6454 95.7177 92.1014 96.4857 87.4081C97.2537 82.7147 98.043 79.6427 98.8537 78.1921C99.6644 77.9787 100.646 77.8081 101.798 77.6801C102.992 77.5094 104.144 77.4241 105.254 77.4241C106.576 77.4241 107.707 77.5094 108.646 77.6801C109.627 77.8508 110.374 78.0854 110.886 78.3841C110.288 81.8401 109.84 85.2961 109.542 88.7521C109.243 92.1654 109.094 95.4081 109.094 98.4801C109.094 103.6 109.371 107.611 109.926 110.512C110.523 113.371 111.355 114.8 112.422 114.8C113.744 114.8 114.747 113.157 115.43 109.872C116.112 106.544 116.454 101.787 116.454 95.6001C116.454 92.5281 116.24 89.2641 115.814 85.8081C115.387 82.3521 114.726 78.7041 113.83 74.8641C115.494 74.1387 117.627 73.5627 120.23 73.1361C122.832 72.6667 125.2 72.4321 127.334 72.4321Z" fill="#FFD600"/>
<path d="M171.591 100.912C171.591 106.075 169.607 110.427 165.639 113.968C161.713 117.509 156.892 119.28 151.175 119.28C149.084 119.28 146.951 118.96 144.775 118.32C142.641 117.68 140.529 116.72 138.439 115.44C137.884 110.533 137.457 105.456 137.159 100.208C136.903 94.9601 136.775 89.4134 136.775 83.5681C136.775 81.0081 136.775 79.0881 136.775 77.8081C136.817 76.5281 136.86 75.3334 136.903 74.2241C139.335 73.0294 141.873 72.1121 144.519 71.4721C147.164 70.8321 149.788 70.5121 152.391 70.5121C157.596 70.5121 161.564 71.4294 164.295 73.2641C167.025 75.0561 168.391 77.6587 168.391 81.0721C168.391 83.1628 167.921 85.0614 166.983 86.7681C166.087 88.4321 164.743 89.8828 162.951 91.1201C165.681 91.9308 167.793 93.2107 169.287 94.9601C170.823 96.6667 171.591 98.6507 171.591 100.912ZM155.911 82.8641C155.911 81.1574 155.441 79.8774 154.503 79.0241C153.564 78.1707 152.177 77.7441 150.343 77.7441H150.151C149.937 80.1334 149.745 82.4161 149.575 84.5921C149.447 86.7254 149.34 88.7734 149.255 90.7361C151.431 90.2668 153.073 89.3494 154.183 87.9841C155.335 86.6188 155.911 84.9121 155.911 82.8641ZM149.063 110.704C149.66 111.003 150.215 111.237 150.727 111.408C151.239 111.536 151.751 111.6 152.263 111.6C153.969 111.6 155.463 110.768 156.743 109.104C158.023 107.44 158.663 105.563 158.663 103.472C158.663 101.723 158.151 100.4 157.127 99.5041C156.145 98.5654 154.695 98.0961 152.775 98.0961C152.22 98.0961 151.644 98.1601 151.047 98.2881C150.449 98.4161 149.788 98.6294 149.063 98.9281C149.02 99.5254 148.999 100.165 148.999 100.848C148.999 101.488 148.999 102.491 148.999 103.856C148.999 105.776 148.999 107.205 148.999 108.144C148.999 109.083 149.02 109.936 149.063 110.704Z" fill="#FFD600"/>
<path d="M194.409 82.5314C196.501 85.9974 195.82 90.2424 192.887 92.0128C189.954 93.7832 185.881 92.4087 183.788 88.9426C181.696 85.4766 182.377 81.2316 185.31 79.4612C188.243 77.6908 192.317 79.0653 194.409 82.5314Z" fill="#CBBB69"/>
<path d="M211.125 82.5412C210.717 86.5693 207.624 89.5554 204.216 89.2108C200.808 88.8663 198.375 85.3216 198.782 81.2935C199.189 77.2655 202.282 74.2794 205.69 74.6239C209.099 74.9684 211.532 78.5131 211.125 82.5412Z" fill="#CBBB69"/>
<path d="M223.174 92.5608C220.233 95.3434 215.94 95.582 213.586 93.0936C211.231 90.6053 211.707 86.3323 214.647 83.5497C217.588 80.7671 221.881 80.5285 224.235 83.0169C226.59 85.5052 226.115 89.7782 223.174 92.5608Z" fill="#CBBB69"/>
<path d="M228.963 107.172C225.089 108.348 221.141 106.644 220.146 103.366C219.152 100.088 221.486 96.4774 225.36 95.3015C229.234 94.1257 233.181 95.8298 234.176 99.1079C235.171 102.386 232.837 105.997 228.963 107.172Z" fill="#CBBB69"/>
<path d="M217.404 112.942C215.302 118.936 206.839 121.424 198.5 118.5C190.161 115.576 185.105 108.347 187.207 102.353C189.308 96.36 199.661 89.5761 208 92.5001C216.339 95.424 219.506 106.949 217.404 112.942Z" fill="#CBBB69"/>
</svg>
