<svg width="259" height="318" viewBox="0 0 259 318" fill="none" xmlns="http://www.w3.org/2000/svg">
<g filter="url(#filter0_f_507_1434)">
<ellipse cx="122.5" cy="280.5" rx="101.5" ry="19.5" fill="#CBBB69"/>
</g>
<path d="M244.596 207.254C249.141 205.596 252.994 210.588 250.11 214.473C240.627 227.248 225.08 246.679 211.121 257.195C199.711 265.79 182.387 273.684 172.23 277.945C168.636 279.452 164.931 276.351 165.659 272.522L172.583 236.115C172.912 234.385 174.128 232.955 175.782 232.352L244.596 207.254Z" fill="url(#paint0_linear_507_1434)"/>
<path d="M232 188.5C232 257.536 179.527 286 118.5 286C57.4725 286 3.5 257.536 3.5 188.5C3.5 119.464 57.4725 30 118.5 30C179.527 30 232 119.464 232 188.5Z" fill="url(#paint1_linear_507_1434)"/>
<path d="M121 108C121 118.77 111.15 127.5 99 127.5C86.8497 127.5 77 118.77 77 108C77 97.2306 97.3497 87.0001 109.5 87.0001C121.65 87.0001 121 97.2306 121 108Z" fill="#FFFBE9"/>
<path d="M121 108C121 118.77 111.15 127.5 99 127.5C86.8497 127.5 77 118.77 77 108C77 97.2306 97.3497 87.0001 109.5 87.0001C121.65 87.0001 121 97.2306 121 108Z" fill="#FFFBE9"/>
<path d="M112.006 108C112.006 118.77 121.856 127.5 134.006 127.5C146.156 127.5 156.006 118.77 156.006 108C156.006 97.2306 135.656 87.0001 123.506 87.0001C111.356 87.0001 112.006 97.2306 112.006 108Z" fill="#FFFBE9"/>
<path d="M112.006 108C112.006 118.77 121.856 127.5 134.006 127.5C146.156 127.5 156.006 118.77 156.006 108C156.006 97.2306 135.656 87.0001 123.506 87.0001C111.356 87.0001 112.006 97.2306 112.006 108Z" fill="#FFFBE9"/>
<path d="M112.027 97.5346C114.107 99.0111 116.893 99.0111 118.973 97.5346L126.569 92.1426C131.336 88.7587 128.942 81.25 123.096 81.25H107.904C102.058 81.25 99.664 88.7587 104.431 92.1426L112.027 97.5346Z" fill="#D9C976"/>
<path d="M65.0465 22.6734C70.4091 20.3079 76.6471 23.0404 78.5442 28.5859L90.1824 62.6057C92.8285 70.3408 85.5793 77.8103 77.7685 75.3968L25.5717 59.2685C16.7322 56.5372 16.023 44.299 24.4879 40.5649L65.0465 22.6734Z" fill="#FFEB83"/>
<path d="M168.368 22.6734C163.006 20.3079 156.768 23.0404 154.87 28.5859L143.232 62.6057C140.586 70.3408 147.835 77.8103 155.646 75.3968L207.843 59.2685C216.682 56.5372 217.392 44.299 208.927 40.5649L168.368 22.6734Z" fill="#FFEB83"/>
<path d="M95.5 57.0001C95.5 57.0001 97.6246 53.231 100 52.5001C101.493 52.0407 104 52.5001 104 52.5001" stroke="#A7911B" stroke-width="3" stroke-linecap="round"/>
<path d="M137 57.0001C137 57.0001 134.875 53.231 132.5 52.5001C131.007 52.0407 128.5 52.5001 128.5 52.5001" stroke="#A7911B" stroke-width="3" stroke-linecap="round"/>
<circle cx="103.5" cy="74.5" r="3.5" fill="#A7911B"/>
<circle cx="103.5" cy="74.5" r="3.5" fill="#A7911B"/>
<circle cx="127.5" cy="74.5" r="3.5" fill="#A7911B"/>
<circle cx="127.5" cy="74.5" r="3.5" fill="#A7911B"/>
<circle cx="104" cy="73" r="1" fill="white"/>
<circle cx="127" cy="73" r="1" fill="white"/>
<defs>
<filter id="filter0_f_507_1434" x="3.5" y="243.5" width="238" height="74" filterUnits="userSpaceOnUse" color-interpolation-filters="sRGB">
<feFlood flood-opacity="0" result="BackgroundImageFix"/>
<feBlend mode="normal" in="SourceGraphic" in2="BackgroundImageFix" result="shape"/>
<feGaussianBlur stdDeviation="8.75" result="effect1_foregroundBlur_507_1434"/>
</filter>
<linearGradient id="paint0_linear_507_1434" x1="243.956" y1="190.143" x2="230.773" y2="263.218" gradientUnits="userSpaceOnUse">
<stop stop-color="#FFEB83"/>
<stop offset="1" stop-color="#FFCF53"/>
</linearGradient>
<linearGradient id="paint1_linear_507_1434" x1="115.738" y1="187.884" x2="118.069" y2="285.992" gradientUnits="userSpaceOnUse">
<stop stop-color="#FFEB83"/>
<stop offset="1" stop-color="#FFCF53"/>
</linearGradient>
</defs>
</svg>
